<svg width="191" height="31" viewBox="0 0 191 31" fill="none" xmlns="http://www.w3.org/2000/svg">
<path d="M23.2259 16.6368L16.561 28.0516L9.89611 16.6368H23.2259ZM25.0114 15.6166H8.10339L16.561 30.0707L25.0114 15.6166Z" fill="white"/>
<path d="M34.8137 2.43933L41.4786 13.8542H28.1488L34.8137 2.43933ZM34.8137 0.398926L26.3561 14.853H43.2713L34.8137 0.398926Z" fill="white"/>
<path d="M0 0.398926L7.09143 13.1836L14.8406 0.719951L0 0.398926Z" fill="#4CAF4F"/>
<path d="M16.5612 1.5188L23.9997 14.2321H9.1084L16.5612 1.5188Z" fill="#4CAF4F"/>
<path d="M25.9152 17.0078L33.3608 30.0707H18.1154L25.6838 17.0078H25.9152Z" fill="#4CAF4F"/>
<path d="M27.5271 16.2158L34.8137 29.0789L42.2014 16.2158H27.5271Z" fill="#4CAF4F"/>
<path d="M74.2197 2.46228V27.6383H69.6222L58.6691 11.7927H58.4847V27.6383H53.1619V2.46228H57.8332L68.7002 18.2956H68.9215V2.46228H74.2197Z" fill="white"/>
<path d="M87.1243 28.0071C85.182 28.0071 83.5102 27.6137 82.1088 26.827C80.7156 26.032 79.642 24.9093 78.888 23.4587C78.134 21.9999 77.757 20.2748 77.757 18.2833C77.757 16.3411 78.134 14.6364 78.888 13.1695C79.642 11.7025 80.7033 10.5593 82.0719 9.73972C83.4487 8.92019 85.0632 8.51043 86.9153 8.51043C88.161 8.51043 89.3206 8.71121 90.3942 9.11278C91.476 9.50616 92.4185 10.1003 93.2216 10.8953C94.033 11.6902 94.664 12.69 95.1147 13.8948C95.5655 15.0913 95.7908 16.4927 95.7908 18.099V19.5372H79.8469V16.2919H90.8614C90.8614 15.5379 90.6975 14.87 90.3696 14.2881C90.0418 13.7063 89.587 13.2514 89.0051 12.9236C88.4315 12.5876 87.7635 12.4196 87.0014 12.4196C86.2064 12.4196 85.5016 12.604 84.887 12.9728C84.2805 13.3334 83.8052 13.821 83.461 14.4356C83.1168 15.0421 82.9406 15.7182 82.9324 16.464V19.5495C82.9324 20.4838 83.1045 21.291 83.4487 21.9712C83.8011 22.6515 84.2969 23.176 84.9361 23.5447C85.5754 23.9135 86.3335 24.0979 87.2104 24.0979C87.7922 24.0979 88.3249 24.016 88.8084 23.8521C89.292 23.6882 89.7058 23.4423 90.05 23.1145C90.3942 22.7867 90.6565 22.3851 90.8368 21.9098L95.6802 22.2294C95.4344 23.3931 94.9303 24.4094 94.1682 25.2781C93.4142 26.1386 92.439 26.8106 91.2424 27.2941C90.0541 27.7694 88.6814 28.0071 87.1243 28.0071Z" fill="white"/>
<path d="M103.247 8.75629L106.713 15.3576L110.266 8.75629H115.638L110.167 18.1973L115.785 27.6383H110.438L106.713 21.1107L103.05 27.6383H97.6409L103.247 18.1973L97.8376 8.75629H103.247Z" fill="white"/>
<path d="M126.603 28.0071C124.669 28.0071 123.005 27.5973 121.612 26.7778C120.227 25.9501 119.162 24.8027 118.416 23.3358C117.679 21.8688 117.31 20.1806 117.31 18.2711C117.31 16.337 117.683 14.6405 118.428 13.1818C119.182 11.7148 120.252 10.5715 121.637 9.75202C123.022 8.92429 124.669 8.51043 126.579 8.51043C128.226 8.51043 129.668 8.80956 130.906 9.40781C132.143 10.0061 133.123 10.8461 133.844 11.9279C134.565 13.0097 134.962 14.2799 135.036 15.7387H130.094C129.955 14.7962 129.586 14.0382 128.988 13.4645C128.398 12.8826 127.624 12.5917 126.665 12.5917C125.853 12.5917 125.144 12.813 124.538 13.2555C123.94 13.6899 123.473 14.325 123.137 15.1609C122.801 15.9969 122.633 17.009 122.633 18.1973C122.633 19.402 122.796 20.4264 123.124 21.2705C123.46 22.1147 123.932 22.758 124.538 23.2005C125.144 23.6431 125.853 23.8644 126.665 23.8644C127.263 23.8644 127.8 23.7414 128.275 23.4956C128.759 23.2497 129.156 22.8932 129.467 22.4261C129.787 21.9508 129.996 21.3812 130.094 20.7174H135.036C134.954 22.1597 134.561 23.43 133.856 24.5282C133.159 25.6182 132.197 26.4705 130.967 27.0851C129.738 27.6998 128.283 28.0071 126.603 28.0071Z" fill="white"/>
<path d="M146.994 28.0071C145.052 28.0071 143.38 27.6137 141.979 26.827C140.585 26.032 139.512 24.9093 138.758 23.4587C138.004 21.9999 137.627 20.2748 137.627 18.2833C137.627 16.3411 138.004 14.6364 138.758 13.1695C139.512 11.7025 140.573 10.5593 141.942 9.73972C143.319 8.92019 144.933 8.51043 146.785 8.51043C148.031 8.51043 149.191 8.71121 150.264 9.11278C151.346 9.50616 152.288 10.1003 153.092 10.8953C153.903 11.6902 154.534 12.69 154.985 13.8948C155.435 15.0913 155.661 16.4927 155.661 18.099V19.5372H139.717V16.2919H150.731C150.731 15.5379 150.567 14.87 150.24 14.2881C149.912 13.7063 149.457 13.2514 148.875 12.9236C148.301 12.5876 147.633 12.4196 146.871 12.4196C146.076 12.4196 145.372 12.604 144.757 12.9728C144.15 13.3334 143.675 13.821 143.331 14.4356C142.987 15.0421 142.81 15.7182 142.802 16.464V19.5495C142.802 20.4838 142.974 21.291 143.319 21.9712C143.671 22.6515 144.167 23.176 144.806 23.5447C145.445 23.9135 146.203 24.0979 147.08 24.0979C147.662 24.0979 148.195 24.016 148.678 23.8521C149.162 23.6882 149.576 23.4423 149.92 23.1145C150.264 22.7867 150.526 22.3851 150.707 21.9098L155.55 22.2294C155.304 23.3931 154.8 24.4094 154.038 25.2781C153.284 26.1386 152.309 26.8106 151.112 27.2941C149.924 27.7694 148.551 28.0071 146.994 28.0071Z" fill="white"/>
<path d="M164.315 16.7221V27.6383H159.078V8.75629H164.069V12.0877H164.29C164.708 10.9895 165.409 10.1208 166.393 9.48157C167.376 8.83414 168.568 8.51043 169.97 8.51043C171.281 8.51043 172.424 8.79726 173.4 9.37094C174.375 9.94461 175.133 10.7641 175.674 11.8295C176.215 12.8867 176.485 14.1488 176.485 15.6158V27.6383H171.248V16.55C171.256 15.3945 170.961 14.493 170.363 13.8456C169.765 13.19 168.941 12.8621 167.892 12.8621C167.187 12.8621 166.565 13.0138 166.024 13.317C165.491 13.6202 165.073 14.0628 164.77 14.6446C164.475 15.2183 164.323 15.9108 164.315 16.7221Z" fill="white"/>
<path d="M190.656 8.75629V12.69H179.285V8.75629H190.656ZM181.866 4.23247H187.103V21.836C187.103 22.3195 187.177 22.6965 187.324 22.967C187.472 23.2292 187.677 23.4136 187.939 23.5202C188.209 23.6267 188.521 23.68 188.873 23.68C189.119 23.68 189.365 23.6595 189.611 23.6185C189.857 23.5693 190.045 23.5324 190.176 23.5079L191 27.4047C190.738 27.4867 190.369 27.5809 189.894 27.6875C189.418 27.8022 188.841 27.8719 188.16 27.8965C186.898 27.9456 185.792 27.7776 184.841 27.3924C183.899 27.0073 183.165 26.409 182.641 25.5977C182.116 24.7863 181.858 23.7619 181.866 22.5244V4.23247Z" fill="white"/>
</svg>
