<svg width="73" height="64" viewBox="0 0 73 64" fill="none" xmlns="http://www.w3.org/2000/svg">
<g filter="url(#filter0_dd_14_1002)">
<path d="M69 38C69 47.9411 60.9411 56 51 56L24 56C21.2386 56 19 53.7614 19 51L19 17C19 11.4772 23.4772 7 29 7L64 7C66.7614 7 69 9.23858 69 12L69 38Z" fill="#E8F5E9"/>
<path d="M32.3117 23.6446C32.0709 23.6446 31.8473 23.5784 31.6487 23.4719V23.4748C31.6487 23.8536 31.5014 24.2094 31.2343 24.4758C30.9671 24.743 30.6116 24.8903 30.2332 24.8903C29.9889 24.8903 29.7625 24.8224 29.5617 24.7131C29.5415 25.0597 29.4029 25.3836 29.1558 25.631C28.8886 25.8982 28.5331 26.0454 28.1545 26.0454C27.4022 26.0454 26.7913 25.4541 26.7473 24.7129C26.5145 24.8387 26.2513 24.9046 25.9799 24.8872C25.2398 24.8387 24.6603 24.1993 24.6603 23.4312V17.0645L23.9353 18.3205C23.6592 18.8009 23.1423 19.0991 22.5858 19.0991C22.3147 19.0991 22.0468 19.028 21.8095 18.892C21.5141 18.7208 21.3028 18.4458 21.2149 18.1169C21.1265 17.7878 21.1722 17.4436 21.3431 17.1486C21.3433 17.1486 23.715 13.0414 23.8597 12.7891C23.8769 12.7512 23.9259 12.6411 23.9676 12.5474C24.0075 12.4578 24.0416 12.366 24.0744 12.2736C24.7896 10.2543 26.5607 8.99998 28.6966 8.99998C31.4703 8.99998 33.7268 11.4469 33.7268 14.4546L33.727 22.2289C33.727 22.6073 33.58 22.9628 33.3131 23.2302C33.0459 23.4974 32.6904 23.6447 32.3116 23.6447L32.3117 23.6446ZM28.6966 9.75212C26.8613 9.75212 25.3984 10.7888 24.7833 12.5251C24.744 12.6354 24.703 12.7457 24.6552 12.8531C24.5164 13.1643 24.5164 13.1643 24.4773 13.2091L24.4721 13.2046C24.2784 13.57 23.7031 14.5663 21.9943 17.525C21.9241 17.6463 21.9055 17.7872 21.9413 17.922C21.9776 18.0567 22.0645 18.1703 22.1849 18.2398C22.5586 18.4544 23.0703 18.3159 23.2833 17.9448L24.7108 15.4734C24.7961 15.3261 24.9685 15.2538 25.1339 15.2986C25.2983 15.3426 25.4126 15.4918 25.4126 15.6619V23.4314C25.4126 23.798 25.6892 24.1144 26.0292 24.1368C26.2252 24.1471 26.408 24.0814 26.5454 23.9443C26.6702 23.8194 26.739 23.6531 26.739 23.4752V18.3938C26.739 18.186 26.9075 18.0176 27.1153 18.0176C27.3231 18.0176 27.4915 18.1858 27.4915 18.3938L27.4913 24.6302C27.4913 24.9958 27.7889 25.2934 28.1545 25.2934C28.3321 25.2934 28.499 25.2246 28.6241 25.0997C28.7489 24.9746 28.8177 24.8078 28.8177 24.6302V18.3938C28.8177 18.186 28.9859 18.0176 29.194 18.0176C29.4018 18.0176 29.5702 18.1858 29.5702 18.3938L29.57 23.4168V23.4752C29.57 23.8406 29.8675 24.1381 30.2334 24.1381C30.4108 24.1381 30.5772 24.0691 30.703 23.9438C30.8278 23.8191 30.8966 23.6528 30.8966 23.4749V18.3936C30.8966 18.1858 31.0649 18.0173 31.2729 18.0173C31.4807 18.0173 31.6491 18.1855 31.6491 18.3936L31.6487 22.2291C31.6487 22.595 31.9462 22.8925 32.3116 22.8925C32.4895 22.8925 32.6558 22.8235 32.7807 22.6989C32.906 22.5736 32.9746 22.4067 32.9746 22.2291L32.9748 14.4548C32.9748 11.862 31.0557 9.7522 28.6966 9.7522L28.6966 9.75212Z" fill="#103E13"/>
<path d="M17.5291 29.048L22.9888 25.7727C23.6471 25.3774 24.4941 25.5454 24.9162 26.1553C25.0703 26.3775 25.149 26.6364 25.1613 26.9001C25.3648 26.7938 25.5863 26.7361 25.8117 26.7361C25.9272 26.7361 26.0431 26.7505 26.1576 26.779C26.5244 26.8706 26.8335 27.0999 27.0279 27.424C27.2225 27.7487 27.2793 28.1291 27.1877 28.4955C27.1031 28.8346 26.8969 29.1199 26.6102 29.3157C26.8107 29.4339 26.9836 29.5953 27.1066 29.8008C27.3012 30.1254 27.358 30.5057 27.2666 30.8725C27.1749 31.2389 26.9457 31.548 26.621 31.7429L26.6192 31.744C26.8161 31.8621 26.986 32.0218 27.1076 32.2242C27.3024 32.5488 27.3592 32.9293 27.2675 33.2961C27.1756 33.6627 26.9464 33.9718 26.6222 34.1664L19.9558 38.1657C18.7116 38.9119 17.2733 39.1694 15.9064 38.8902C14.5272 38.6084 13.385 37.8157 12.6905 36.6579C11.5914 34.8261 11.7561 32.6619 13.1195 31.0101C13.1819 30.9347 13.2434 30.8579 13.2993 30.7783C13.3584 30.6942 13.4274 30.5952 13.451 30.5613C13.5921 30.3092 15.8949 26.1603 15.8946 26.1608C16.1272 25.7412 16.563 25.5037 17.0125 25.5039C17.2222 25.5039 17.4349 25.5555 17.6312 25.6644C17.8682 25.7968 18.0673 25.9898 18.2065 26.2223C18.4928 26.6994 18.5029 27.2964 18.2334 27.7796L17.5291 29.048ZM17.5618 26.6091C17.4888 26.4873 17.3884 26.3902 17.2657 26.3214C17.012 26.181 16.6925 26.2724 16.5528 26.5252C14.905 29.4937 14.3434 30.5054 14.1266 30.8654L14.1315 30.8666C14.1134 30.9269 14.1134 30.9269 13.915 31.2103C13.8476 31.3062 13.7744 31.3983 13.6997 31.489C12.5273 32.9094 12.3912 34.6969 13.3352 36.2709C13.92 37.2458 14.8864 37.9142 16.0566 38.1531C17.2395 38.3937 18.4863 38.1699 19.5684 37.5206L26.2355 33.5211C26.3876 33.4299 26.4951 33.285 26.538 33.1133C26.5808 32.9417 26.5542 32.7634 26.4628 32.6112C26.2748 32.2979 25.8665 32.1949 25.5532 32.3836L22.2642 34.3568C22.0861 34.4637 21.8548 34.4062 21.748 34.2279C21.6411 34.0498 21.6988 33.8187 21.8769 33.7117L25.1661 31.7386L26.2343 31.0977C26.3865 31.0063 26.4941 30.8614 26.537 30.6901C26.5799 30.5184 26.5533 30.3398 26.4619 30.1878C26.2736 29.8743 25.8653 29.7723 25.5522 29.9603L21.1948 32.5742C21.0163 32.6814 20.7856 32.6235 20.6787 32.4454C20.5717 32.2673 20.6296 32.0361 20.8075 31.9292L26.1554 28.7211C26.3076 28.6296 26.415 28.485 26.4579 28.3132C26.5007 28.1417 26.4741 27.9634 26.3829 27.8112C26.2918 27.6592 26.1469 27.5518 25.9751 27.5089C25.8024 27.466 25.6248 27.4927 25.4731 27.5836L24.4831 28.1775C24.4829 28.1775 24.4829 28.1778 24.4826 28.1778H24.4824L20.1252 30.7917C19.9467 30.8992 19.7158 30.8412 19.6091 30.6629C19.5021 30.4848 19.5601 30.2536 19.7379 30.1467L24.0953 27.5327C24.2475 27.4413 24.3552 27.2964 24.398 27.1251C24.4452 26.9371 24.4094 26.7449 24.2977 26.5837C24.104 26.3036 23.6898 26.2291 23.3758 26.4179L16.7136 30.4146C16.5678 30.5017 16.3809 30.4805 16.2587 30.3625C16.1362 30.2442 16.1086 30.0583 16.1911 29.9097L17.5764 27.4137C17.7154 27.1642 17.71 26.8561 17.5618 26.6092L17.5618 26.6091Z" fill="#103E13"/>
<path d="M43.6181 36.6577C42.9238 37.8157 41.7819 38.6083 40.4025 38.8901C39.0353 39.1688 37.5974 38.9117 36.353 38.1656L29.686 34.1661C29.3616 33.9715 29.1321 33.6624 29.0402 33.2953C28.949 32.9289 29.006 32.5484 29.2004 32.2243C29.3217 32.0216 29.4918 31.8619 29.689 31.7439L29.6871 31.7427C29.3627 31.5481 29.1333 31.239 29.0419 30.8724C28.95 30.5058 29.007 30.125 29.2016 29.8004C29.3269 29.5919 29.4987 29.4289 29.6947 29.3132C29.4101 29.1174 29.2051 28.8331 29.1208 28.4957C29.0289 28.1288 29.0859 27.7483 29.2805 27.4242C29.4749 27.0997 29.7842 26.8705 30.1508 26.7789C30.2653 26.7501 30.3815 26.736 30.4965 26.736C30.7222 26.7362 30.9436 26.7935 31.1472 26.9C31.1597 26.6363 31.2381 26.3774 31.3922 26.1552C31.8146 25.5458 32.6609 25.3771 33.3201 25.7726L38.7796 29.0474L38.0759 27.7799C37.8059 27.296 37.8158 26.699 38.1021 26.2216C38.2415 25.9893 38.4408 25.7964 38.679 25.6628C38.8748 25.5544 39.0869 25.5031 39.296 25.5031C39.7453 25.5033 40.1817 25.7403 40.4139 26.1599C41.2235 27.6185 42.7511 30.3694 42.8585 30.5614C42.8813 30.5946 42.9504 30.6936 43.0095 30.7777C43.0658 30.8575 43.1266 30.9339 43.1895 31.0097C44.5527 32.6622 44.7171 34.8262 43.6181 36.6578L43.6181 36.6577ZM42.6091 31.4892C42.5341 31.3985 42.4606 31.3059 42.3937 31.2105C42.1902 30.9217 42.185 30.9141 42.1697 30.8385C41.9317 30.4448 41.3512 29.3997 39.7555 26.5249C39.6156 26.2726 39.2975 26.1805 39.0443 26.3204C38.9196 26.3901 38.8195 26.4874 38.7465 26.6093C38.5985 26.8559 38.5928 27.1641 38.7326 27.4143L40.1174 29.9095C40.2001 30.0584 40.1725 30.2441 40.0503 30.3623C39.9282 30.4808 39.7416 30.5016 39.5951 30.4144L32.9329 26.4177C32.6189 26.2295 32.2049 26.3032 32.0108 26.5836C31.8991 26.7447 31.8635 26.937 31.9102 27.1247C31.9531 27.2963 32.0607 27.4409 32.2132 27.5323C32.2136 27.5326 32.2139 27.533 32.2143 27.5333L36.5703 30.1465C36.7484 30.2535 36.8062 30.4844 36.6992 30.6627C36.5922 30.8406 36.3616 30.8988 36.183 30.7916L30.8352 27.5835C30.6834 27.4925 30.5048 27.4657 30.3333 27.5088C30.1613 27.5517 30.0167 27.6591 29.9255 27.8115C29.8341 27.9635 29.8077 28.1418 29.8501 28.3133C29.893 28.4849 30.0007 28.6297 30.1529 28.7212L31.1935 29.3453L35.5005 31.9293C35.6786 32.0363 35.7363 32.2672 35.6293 32.4455C35.5224 32.6234 35.2917 32.6814 35.1131 32.5744L30.7562 29.9604C30.4429 29.7719 30.0348 29.8742 29.8464 30.188C29.755 30.3402 29.7286 30.5186 29.771 30.6901C29.8139 30.8616 29.9215 31.0062 30.0739 31.0979L31.1422 31.7387L34.4308 33.7119C34.609 33.8188 34.6667 34.0497 34.5597 34.2281C34.4528 34.4059 34.2221 34.4644 34.0435 34.3569L30.7548 32.3838C30.6031 32.2928 30.4252 32.266 30.2528 32.3091C30.0813 32.352 29.9361 32.4594 29.845 32.6114C29.7538 32.7636 29.7272 32.9421 29.7696 33.1134C29.8124 33.2849 29.9201 33.4296 30.0725 33.5212L36.7395 37.5207C37.8214 38.1698 39.0691 38.3945 40.2514 38.1533C41.4213 37.9144 42.3878 37.246 42.9725 36.2711C43.9175 34.6968 43.7816 32.9091 42.6095 31.4892L42.6091 31.4892Z" fill="#103E13"/>
</g>
<defs>
<filter id="filter0_dd_14_1002" x="0" y="0" width="73" height="64" filterUnits="userSpaceOnUse" color-interpolation-filters="sRGB">
<feFlood flood-opacity="0" result="BackgroundImageFix"/>
<feColorMatrix in="SourceAlpha" type="matrix" values="0 0 0 0 0 0 0 0 0 0 0 0 0 0 0 0 0 0 127 0" result="hardAlpha"/>
<feOffset dy="4"/>
<feGaussianBlur stdDeviation="2"/>
<feComposite in2="hardAlpha" operator="out"/>
<feColorMatrix type="matrix" values="0 0 0 0 0 0 0 0 0 0 0 0 0 0 0 0 0 0 0.25 0"/>
<feBlend mode="normal" in2="BackgroundImageFix" result="effect1_dropShadow_14_1002"/>
<feColorMatrix in="SourceAlpha" type="matrix" values="0 0 0 0 0 0 0 0 0 0 0 0 0 0 0 0 0 0 127 0" result="hardAlpha"/>
<feOffset dy="4"/>
<feGaussianBlur stdDeviation="2"/>
<feComposite in2="hardAlpha" operator="out"/>
<feColorMatrix type="matrix" values="0 0 0 0 0 0 0 0 0 0 0 0 0 0 0 0 0 0 0.25 0"/>
<feBlend mode="normal" in2="effect1_dropShadow_14_1002" result="effect2_dropShadow_14_1002"/>
<feBlend mode="normal" in="SourceGraphic" in2="effect2_dropShadow_14_1002" result="shape"/>
</filter>
</defs>
</svg>
