<svg width="73" height="64" viewBox="0 0 73 64" fill="none" xmlns="http://www.w3.org/2000/svg">
<g filter="url(#filter0_d_14_828)">
<path d="M69 38C69 47.9411 60.9411 56 51 56L24 56C21.2386 56 19 53.7614 19 51L19 17C19 11.4772 23.4772 7 29 7L64 7C66.7614 7 69 9.23858 69 12L69 38Z" fill="#E8F5E9"/>
<path d="M27.99 10C24.4187 10 21.5114 12.9339 21.5114 16.5203C21.5114 18.7892 22.6765 20.7925 24.4358 21.9602C22.3109 22.6706 20.4723 23.9985 19.1238 25.7357C18.3782 25.1622 17.5451 24.701 16.647 24.3705C18.0089 23.3595 18.8989 21.7353 18.8989 19.91C18.8989 16.8682 16.4388 14.3782 13.4155 14.3782C10.3922 14.3782 7.93208 16.8682 7.93208 19.91C7.93208 21.7364 8.82277 23.3613 10.1858 24.3723C6.57721 25.7039 4 29.1903 4 33.2933V36.1754C4.00037 36.3951 4.08826 36.6056 4.24409 36.7604C4.39992 36.9155 4.61078 37.0019 4.8305 37.0011H17.4755C17.5061 37.0045 17.5368 37.0063 17.5674 37.0059H38.4133C38.4439 37.0063 38.4749 37.0045 38.5052 37.0011H51.1511C51.6057 36.9993 51.9739 36.6304 51.975 36.1754V33.2933C51.975 29.1903 49.4022 25.7039 45.7955 24.3719C47.1585 23.3613 48.0492 21.736 48.0492 19.9096C48.0492 16.8679 45.5892 14.3778 42.5658 14.3778C39.5426 14.3778 37.0824 16.8679 37.0824 19.9096C37.0824 21.735 37.9728 23.3594 39.3346 24.3701C38.4347 24.7014 37.6013 25.1641 36.8546 25.739C35.5067 24.0008 33.6707 22.6711 31.5459 21.9602C33.3047 20.7925 34.4703 18.7892 34.4703 16.5203C34.4703 12.9339 31.5614 10 27.9902 10H27.99ZM27.99 11.6544C30.661 11.6544 32.8142 13.822 32.8142 16.5203C32.8142 19.1976 30.6945 21.3442 28.0531 21.3786C28.0321 21.3786 28.0114 21.3756 27.99 21.3756C27.9686 21.3756 27.9483 21.3786 27.9268 21.3786C25.2854 21.3446 23.1672 19.1977 23.1672 16.5203C23.1672 13.8217 25.3186 11.6544 27.9896 11.6544H27.99ZM13.4156 16.0324C15.5348 16.0324 17.2446 17.7525 17.2446 19.9099C17.2446 22.0528 15.557 23.7655 13.4576 23.7887C13.4436 23.7887 13.4299 23.7873 13.4155 23.7873C13.4015 23.7873 13.3878 23.7887 13.3734 23.7887C11.2741 23.7655 9.58647 22.0524 9.58647 19.9099C9.58647 17.7526 11.2962 16.0324 13.4155 16.0324H13.4156ZM42.5653 16.0324C44.6846 16.0324 46.3944 17.7525 46.3944 19.9099C46.3944 22.0528 44.7067 23.7655 42.6074 23.7887C42.5934 23.7887 42.5797 23.7873 42.5653 23.7873C42.5513 23.7873 42.5376 23.7887 42.5232 23.7887C40.4239 23.7655 38.7363 22.0524 38.7363 19.9099C38.7363 17.7526 40.446 16.0324 42.5653 16.0324H42.5653ZM27.9266 23.0328C27.9477 23.0332 27.9684 23.0358 27.9898 23.0358C28.0108 23.0358 28.0315 23.0328 28.0529 23.0328C33.3502 23.0668 37.5896 27.3427 37.5896 32.6952L37.5892 35.3511H18.3911V32.6952C18.3911 27.3422 22.6293 23.0669 27.9259 23.0328H27.9266ZM13.3522 25.445C13.3733 25.4454 13.394 25.4479 13.4154 25.4479C13.4368 25.4479 13.4571 25.445 13.4785 25.445C15.2702 25.4594 16.9054 26.0772 18.2074 27.1108C17.2757 28.7593 16.7369 30.6621 16.7369 32.6957V35.3452H5.65369V33.2932C5.65369 28.9431 9.07396 25.4789 13.352 25.4446L13.3522 25.445ZM42.502 25.445C42.5234 25.4454 42.5437 25.4479 42.5652 25.4479C42.5866 25.4479 42.6069 25.445 42.6283 25.445C46.9064 25.479 50.3266 28.9435 50.3266 33.2935V35.3452H39.2377L39.2374 32.6957C39.2374 30.6632 38.7001 28.7618 37.7702 27.1137C39.0726 26.0787 40.7089 25.4594 42.5021 25.445H42.502Z" fill="#103E13"/>
</g>
<defs>
<filter id="filter0_d_14_828" x="0" y="0" width="73" height="64" filterUnits="userSpaceOnUse" color-interpolation-filters="sRGB">
<feFlood flood-opacity="0" result="BackgroundImageFix"/>
<feColorMatrix in="SourceAlpha" type="matrix" values="0 0 0 0 0 0 0 0 0 0 0 0 0 0 0 0 0 0 127 0" result="hardAlpha"/>
<feOffset dy="4"/>
<feGaussianBlur stdDeviation="2"/>
<feComposite in2="hardAlpha" operator="out"/>
<feColorMatrix type="matrix" values="0 0 0 0 0 0 0 0 0 0 0 0 0 0 0 0 0 0 0.25 0"/>
<feBlend mode="normal" in2="BackgroundImageFix" result="effect1_dropShadow_14_828"/>
<feBlend mode="normal" in="SourceGraphic" in2="effect1_dropShadow_14_828" result="shape"/>
</filter>
</defs>
</svg>
