<svg width="34" height="30" viewBox="0 0 34 30" fill="none" xmlns="http://www.w3.org/2000/svg">
<path d="M21.3117 14.6446C21.0709 14.6446 20.8473 14.5784 20.6487 14.4719V14.4748C20.6487 14.8536 20.5014 15.2094 20.2343 15.4758C19.9671 15.743 19.6116 15.8903 19.2332 15.8903C18.9889 15.8903 18.7625 15.8224 18.5617 15.7131C18.5415 16.0597 18.4029 16.3836 18.1558 16.631C17.8886 16.8982 17.5331 17.0454 17.1545 17.0454C16.4022 17.0454 15.7913 16.4541 15.7473 15.7129C15.5145 15.8387 15.2513 15.9046 14.9799 15.8872C14.2398 15.8387 13.6603 15.1993 13.6603 14.4312V8.06453L12.9353 9.32049C12.6592 9.80087 12.1423 10.0991 11.5858 10.0991C11.3147 10.0991 11.0468 10.028 10.8095 9.89204C10.5141 9.72076 10.3028 9.44582 10.2149 9.1169C10.1265 8.78777 10.1722 8.44356 10.3431 8.14857C10.3433 8.14857 12.715 4.04137 12.8597 3.78908C12.8769 3.75115 12.9259 3.64113 12.9676 3.54736C13.0075 3.45783 13.0416 3.36595 13.0744 3.27359C13.7896 1.25431 15.5607 -1.90735e-05 17.6966 -1.90735e-05C20.4703 -1.90735e-05 22.7268 2.44688 22.7268 5.45457L22.727 13.2289C22.727 13.6073 22.58 13.9628 22.3131 14.2302C22.0459 14.4974 21.6904 14.6447 21.3116 14.6447L21.3117 14.6446ZM17.6966 0.752123C15.8613 0.752123 14.3984 1.78878 13.7833 3.52514C13.744 3.6354 13.703 3.74565 13.6552 3.85309C13.5164 4.16432 13.5164 4.16432 13.4773 4.20907L13.4721 4.2046C13.2784 4.57001 12.7031 5.56635 10.9943 8.525C10.9241 8.64633 10.9055 8.78723 10.9413 8.92198C10.9776 9.05675 11.0645 9.1703 11.1849 9.2398C11.5586 9.45443 12.0703 9.3159 12.2833 8.94484L13.7108 6.47339C13.7961 6.32614 13.9685 6.25381 14.1339 6.29858C14.2983 6.34263 14.4126 6.49177 14.4126 6.66187V14.4314C14.4126 14.798 14.6892 15.1144 15.0292 15.1368C15.2252 15.1471 15.408 15.0814 15.5454 14.9443C15.6702 14.8194 15.739 14.6531 15.739 14.4752V9.39383C15.739 9.18603 15.9075 9.01757 16.1153 9.01757C16.3231 9.01757 16.4915 9.18579 16.4915 9.39383L16.4913 15.6302C16.4913 15.9958 16.7889 16.2934 17.1545 16.2934C17.3321 16.2934 17.499 16.2246 17.6241 16.0997C17.7489 15.9746 17.8177 15.8078 17.8177 15.6302V9.39382C17.8177 9.18602 17.9859 9.01757 18.194 9.01757C18.4018 9.01757 18.5702 9.18579 18.5702 9.39382L18.57 14.4168V14.4752C18.57 14.8406 18.8675 15.1381 19.2334 15.1381C19.4108 15.1381 19.5772 15.0691 19.703 14.9438C19.8278 14.8191 19.8966 14.6528 19.8966 14.4749V9.39356C19.8966 9.18576 20.0649 9.01731 20.2729 9.01731C20.4807 9.01731 20.6491 9.18552 20.6491 9.39356L20.6487 13.2291C20.6487 13.595 20.9462 13.8925 21.3116 13.8925C21.4895 13.8925 21.6558 13.8235 21.7807 13.6989C21.906 13.5736 21.9746 13.4067 21.9746 13.2291L21.9748 5.45475C21.9748 2.86201 20.0557 0.752201 17.6966 0.752201L17.6966 0.752123Z" fill="#103E13"/>
<path d="M6.5291 20.048L11.9888 16.7727C12.6471 16.3774 13.4941 16.5454 13.9162 17.1553C14.0703 17.3775 14.149 17.6364 14.1613 17.9001C14.3648 17.7938 14.5863 17.7361 14.8117 17.7361C14.9272 17.7361 15.0431 17.7505 15.1576 17.779C15.5244 17.8706 15.8335 18.0999 16.0279 18.424C16.2225 18.7487 16.2793 19.1291 16.1877 19.4955C16.1031 19.8346 15.8969 20.1199 15.6102 20.3157C15.8107 20.4339 15.9836 20.5953 16.1066 20.8008C16.3012 21.1254 16.358 21.5057 16.2666 21.8725C16.1749 22.2389 15.9457 22.548 15.621 22.7429L15.6192 22.744C15.8161 22.8621 15.986 23.0218 16.1076 23.2242C16.3024 23.5488 16.3592 23.9293 16.2675 24.2961C16.1756 24.6627 15.9464 24.9718 15.6222 25.1664L8.95583 29.1657C7.71164 29.9119 6.27329 30.1694 4.90636 29.8902C3.52718 29.6084 2.38497 28.8157 1.69046 27.6579C0.591379 25.8261 0.756094 23.6619 2.11949 22.0101C2.18192 21.9347 2.24341 21.8579 2.29925 21.7783C2.35839 21.6942 2.42742 21.5952 2.45098 21.5613C2.5921 21.3092 4.89486 17.1603 4.89462 17.1608C5.12716 16.7412 5.56301 16.5037 6.01252 16.5039C6.22221 16.5039 6.43495 16.5555 6.63121 16.6644C6.86823 16.7968 7.06731 16.9898 7.20655 17.2223C7.4928 17.6994 7.50293 18.2964 7.2334 18.7796L6.5291 20.048ZM6.56185 17.6091C6.48882 17.4873 6.38845 17.3902 6.2657 17.3214C6.01196 17.181 5.69249 17.2724 5.5528 17.5252C3.90505 20.4937 3.34335 21.5054 3.12659 21.8654L3.13153 21.8666C3.11339 21.9269 3.11339 21.9269 2.91502 22.2103C2.84764 22.3062 2.77437 22.3983 2.69969 22.489C1.52732 23.9094 1.39119 25.6969 2.33521 27.2709C2.91997 28.2458 3.8864 28.9142 5.0566 29.1531C6.23952 29.3937 7.48631 29.1699 8.56845 28.5206L15.2355 24.5211C15.3876 24.4299 15.4951 24.285 15.538 24.1133C15.5808 23.9417 15.5542 23.7634 15.4628 23.6112C15.2748 23.2979 14.8665 23.1949 14.5532 23.3836L11.2642 25.3568C11.0861 25.4637 10.8548 25.4062 10.748 25.2279C10.6411 25.0498 10.6988 24.8187 10.8769 24.7117L14.1661 22.7386L15.2343 22.0977C15.3865 22.0063 15.4941 21.8614 15.537 21.6901C15.5799 21.5184 15.5533 21.3398 15.4619 21.1878C15.2736 20.8743 14.8653 20.7723 14.5522 20.9603L10.1948 23.5742C10.0163 23.6814 9.78561 23.6235 9.67865 23.4454C9.57169 23.2673 9.62965 23.0361 9.80752 22.9292L15.1554 19.7211C15.3076 19.6296 15.415 19.485 15.4579 19.3132C15.5007 19.1417 15.4741 18.9634 15.3829 18.8112C15.2918 18.6592 15.1469 18.5518 14.9751 18.5089C14.8024 18.466 14.6248 18.4927 14.4731 18.5836L13.4831 19.1775C13.4829 19.1775 13.4829 19.1778 13.4826 19.1778H13.4824L9.12525 21.7917C8.94667 21.8992 8.71578 21.8412 8.60905 21.6629C8.5021 21.4848 8.56005 21.2536 8.73793 21.1467L13.0953 18.5327C13.2475 18.4413 13.3552 18.2964 13.398 18.1251C13.4452 17.9371 13.4094 17.7449 13.2977 17.5837C13.104 17.3036 12.6898 17.2291 12.3758 17.4179L5.71361 21.4146C5.56778 21.5017 5.38095 21.4805 5.25867 21.3625C5.13616 21.2442 5.10859 21.0583 5.19105 20.9097L6.57638 18.4137C6.71539 18.1642 6.70997 17.8561 6.56178 17.6092L6.56185 17.6091Z" fill="#103E13"/>
<path d="M32.6181 27.6577C31.9238 28.8157 30.7819 29.6083 29.4025 29.8901C28.0353 30.1688 26.5974 29.9117 25.353 29.1656L18.686 25.1661C18.3616 24.9715 18.1321 24.6624 18.0402 24.2953C17.949 23.9289 18.006 23.5484 18.2004 23.2243C18.3217 23.0216 18.4918 22.8619 18.689 22.7439L18.6871 22.7427C18.3627 22.5481 18.1333 22.239 18.0419 21.8724C17.95 21.5058 18.007 21.125 18.2016 20.8004C18.3269 20.5919 18.4987 20.4289 18.6947 20.3132C18.4101 20.1174 18.2051 19.8331 18.1208 19.4957C18.0289 19.1288 18.0859 18.7483 18.2805 18.4242C18.4749 18.0997 18.7842 17.8705 19.1508 17.7789C19.2653 17.7501 19.3815 17.736 19.4965 17.736C19.7222 17.7362 19.9436 17.7935 20.1472 17.9C20.1597 17.6363 20.2381 17.3774 20.3922 17.1552C20.8146 16.5458 21.6609 16.3771 22.3201 16.7726L27.7796 20.0474L27.0759 18.7799C26.8059 18.296 26.8158 17.699 27.1021 17.2216C27.2415 16.9893 27.4408 16.7964 27.679 16.6628C27.8748 16.5544 28.0869 16.5031 28.296 16.5031C28.7453 16.5033 29.1817 16.7403 29.4139 17.1599C30.2235 18.6185 31.7511 21.3694 31.8585 21.5614C31.8813 21.5946 31.9504 21.6936 32.0095 21.7777C32.0658 21.8575 32.1266 21.9339 32.1895 22.0097C33.5527 23.6622 33.7171 25.8262 32.6181 27.6578L32.6181 27.6577ZM31.6091 22.4892C31.5341 22.3985 31.4606 22.3059 31.3937 22.2105C31.1902 21.9217 31.185 21.9141 31.1697 21.8385C30.9317 21.4448 30.3512 20.3997 28.7555 17.5249C28.6156 17.2726 28.2975 17.1805 28.0443 17.3204C27.9196 17.3901 27.8195 17.4874 27.7465 17.6093C27.5985 17.8559 27.5928 18.1641 27.7326 18.4143L29.1174 20.9095C29.2001 21.0584 29.1725 21.2441 29.0503 21.3623C28.9282 21.4808 28.7416 21.5016 28.5951 21.4144L21.9329 17.4177C21.6189 17.2295 21.2049 17.3032 21.0108 17.5836C20.8991 17.7447 20.8635 17.937 20.9102 18.1247C20.9531 18.2963 21.0607 18.4409 21.2132 18.5323C21.2136 18.5326 21.2139 18.533 21.2143 18.5333L25.5703 21.1465C25.7484 21.2535 25.8062 21.4844 25.6992 21.6627C25.5922 21.8406 25.3616 21.8988 25.183 21.7916L19.8352 18.5835C19.6834 18.4925 19.5048 18.4657 19.3333 18.5088C19.1613 18.5517 19.0167 18.6591 18.9255 18.8115C18.8341 18.9635 18.8077 19.1418 18.8501 19.3133C18.893 19.4849 19.0007 19.6297 19.1529 19.7212L20.1935 20.3453L24.5005 22.9293C24.6786 23.0363 24.7363 23.2672 24.6293 23.4455C24.5224 23.6234 24.2917 23.6814 24.1131 23.5744L19.7562 20.9604C19.4429 20.7719 19.0348 20.8742 18.8464 21.188C18.755 21.3402 18.7286 21.5186 18.771 21.6901C18.8139 21.8616 18.9215 22.0062 19.0739 22.0979L20.1422 22.7387L23.4308 24.7119C23.609 24.8188 23.6667 25.0497 23.5597 25.2281C23.4528 25.4059 23.2221 25.4644 23.0435 25.3569L19.7548 23.3838C19.6031 23.2928 19.4252 23.266 19.2528 23.3091C19.0813 23.352 18.9361 23.4594 18.845 23.6114C18.7538 23.7636 18.7272 23.9421 18.7696 24.1134C18.8124 24.2849 18.9201 24.4296 19.0725 24.5212L25.7395 28.5207C26.8214 29.1698 28.0691 29.3945 29.2514 29.1533C30.4213 28.9144 31.3878 28.246 31.9725 27.2711C32.9175 25.6968 32.7816 23.9091 31.6095 22.4892L31.6091 22.4892Z" fill="#103E13"/>
</svg>
