<svg width="32" height="33" viewBox="0 0 32 33" fill="none" xmlns="http://www.w3.org/2000/svg">
<path opacity="0.1" fill-rule="evenodd" clip-rule="evenodd" d="M0 16.0707C0 7.23412 7.16344 0.0706787 16 0.0706787C24.8366 0.0706787 32 7.23412 32 16.0707C32 24.9072 24.8366 32.0707 16 32.0707C7.16344 32.0707 0 24.9072 0 16.0707Z" fill="white"/>
<path fill-rule="evenodd" clip-rule="evenodd" d="M24.5333 16.0589C24.5333 16.6359 24.4746 17.2122 24.3592 17.774C24.2467 18.3224 24.08 18.8608 23.8617 19.3755C23.6483 19.8811 23.3837 20.3683 23.0745 20.8226C22.77 21.2741 22.4191 21.6977 22.0337 22.0838C21.6474 22.4683 21.2224 22.8182 20.7711 23.124C20.3152 23.4311 19.8273 23.6953 19.3215 23.9096C18.806 24.1268 18.2664 24.2932 17.7184 24.4056C17.1559 24.5213 16.5776 24.5803 15.9996 24.5803C15.4213 24.5803 14.8429 24.5213 14.2812 24.4056C13.7324 24.2932 13.1928 24.1268 12.6778 23.9096C12.1719 23.6953 11.6836 23.4311 11.2277 23.124C10.7764 22.8182 10.3514 22.4683 9.96599 22.0838C9.58015 21.6977 9.22928 21.2741 8.92427 20.8226C8.61675 20.3683 8.35172 19.881 8.13755 19.3755C7.91918 18.8608 7.75211 18.3224 7.63919 17.774C7.52503 17.2122 7.46667 16.6359 7.46667 16.0589C7.46667 15.4813 7.52499 14.9038 7.63922 14.3433C7.75215 13.7949 7.91922 13.2556 8.13759 12.7418C8.35175 12.2358 8.61678 11.7482 8.9243 11.2938C9.22931 10.8419 9.58018 10.4192 9.96602 10.0326C10.3515 9.64814 10.7765 9.29908 11.2278 8.99367C11.6836 8.68533 12.172 8.42115 12.6778 8.20643C13.1929 7.98877 13.7324 7.82195 14.2812 7.71045C14.8429 7.59562 15.4213 7.53735 15.9997 7.53735C16.5776 7.53735 17.1559 7.59562 17.7185 7.71045C18.2664 7.82198 18.806 7.98881 19.3215 8.20643C19.8273 8.42112 20.3153 8.68533 20.7711 8.99367C21.2224 9.29908 21.6475 9.64814 22.0337 10.0326C22.4191 10.4192 22.77 10.8419 23.0746 11.2938C23.3837 11.7482 23.6483 12.2359 23.8617 12.7418C24.08 13.2556 24.2467 13.7949 24.3592 14.3433C24.4746 14.9038 24.5333 15.4813 24.5333 16.0589ZM12.8903 9.47673C10.8581 10.435 9.34131 12.3049 8.86836 14.5584C9.06048 14.5601 12.0973 14.5984 15.5962 13.6701C14.3349 11.4323 12.9874 9.60617 12.8903 9.47673ZM16.2 14.7906C12.4477 15.9124 8.84711 15.8317 8.71795 15.8267C8.71585 15.9049 8.71211 15.9806 8.71211 16.0588C8.71211 17.9283 9.41839 19.6326 10.5793 20.9213C10.5768 20.9175 12.5711 17.3845 16.5038 16.1146C16.5988 16.083 16.6955 16.0547 16.7913 16.0272C16.6084 15.6137 16.4087 15.1992 16.2 14.7906ZM20.8124 10.5973C19.5293 9.46757 17.8447 8.78232 15.9996 8.78232C15.4075 8.78232 14.8329 8.85389 14.2824 8.9862C14.3916 9.13268 15.7604 10.946 17.0067 13.2311C19.7565 12.2017 20.7944 10.6239 20.8124 10.5973ZM17.288 17.233C17.2718 17.2384 17.2556 17.2431 17.2397 17.2489C12.94 18.7456 11.5358 21.7621 11.5206 21.795C12.7578 22.7558 14.3096 23.3354 15.9996 23.3354C17.0088 23.3354 17.9701 23.1302 18.8448 22.7587C18.7368 22.1229 18.3135 19.8943 17.288 17.233ZM20.0719 22.0938C21.7082 20.9912 22.8703 19.2403 23.1945 17.2122C23.0445 17.1639 21.0057 16.5194 18.6535 16.896C19.6093 19.519 19.9977 21.6552 20.0719 22.0938ZM17.5676 14.3154C17.7368 14.6625 17.9006 15.0157 18.0518 15.3706C18.1056 15.498 18.1581 15.6228 18.2093 15.7476C20.7128 15.433 23.1792 15.9623 23.2846 15.9839C23.2679 14.2588 22.65 12.6756 21.6275 11.4361C21.6137 11.4556 20.4449 13.142 17.5676 14.3154Z" fill="white"/>
</svg>
