<svg width="32" height="33" viewBox="0 0 32 33" fill="none" xmlns="http://www.w3.org/2000/svg">
<path opacity="0.1" fill-rule="evenodd" clip-rule="evenodd" d="M0 16.0707C0 7.23412 7.16344 0.0706787 16 0.0706787C24.8366 0.0706787 32 7.23412 32 16.0707C32 24.9072 24.8366 32.0707 16 32.0707C7.16344 32.0707 0 24.9072 0 16.0707Z" fill="white"/>
<path fill-rule="evenodd" clip-rule="evenodd" d="M16.0008 7.53735C13.6833 7.53735 13.3924 7.54749 12.4822 7.58891C11.5737 7.63051 10.9536 7.77433 10.4111 7.98536C9.84981 8.20332 9.37372 8.49487 8.8994 8.96937C8.42473 9.44368 8.13317 9.91978 7.9145 10.4809C7.70294 11.0236 7.55894 11.6439 7.51805 12.552C7.47734 13.4622 7.46667 13.7532 7.46667 16.0708C7.46667 18.3883 7.47699 18.6783 7.51823 19.5885C7.56001 20.497 7.70383 21.1171 7.91468 21.6596C8.13282 22.2209 8.42437 22.697 8.89887 23.1713C9.37301 23.646 9.8491 23.9382 10.41 24.1562C10.9529 24.3672 11.5732 24.511 12.4815 24.5526C13.3917 24.5941 13.6824 24.6042 15.9997 24.6042C18.3175 24.6042 18.6074 24.5941 19.5176 24.5526C20.4261 24.511 21.0469 24.3672 21.5898 24.1562C22.1509 23.9382 22.6263 23.646 23.1004 23.1713C23.5751 22.697 23.8667 22.2209 24.0853 21.6598C24.2951 21.1171 24.4391 20.4968 24.4818 19.5887C24.5227 18.6784 24.5333 18.3883 24.5333 16.0708C24.5333 13.7532 24.5227 13.4624 24.4818 12.5522C24.4391 11.6437 24.2951 11.0236 24.0853 10.481C23.8667 9.91978 23.5751 9.44368 23.1004 8.96937C22.6258 8.4947 22.1511 8.20314 21.5893 7.98536C21.0453 7.77433 20.4249 7.63051 19.5164 7.58891C18.6062 7.54749 18.3164 7.53735 15.9981 7.53735H16.0008ZM15.2353 9.07512C15.4625 9.07477 15.716 9.07512 16.0008 9.07512C18.2792 9.07512 18.5492 9.0833 19.449 9.12419C20.281 9.16224 20.7326 9.30126 21.0334 9.41806C21.4316 9.57273 21.7155 9.75762 22.014 10.0563C22.3127 10.355 22.4976 10.6394 22.6526 11.0376C22.7694 11.3381 22.9086 11.7896 22.9464 12.6216C22.9873 13.5212 22.9962 13.7914 22.9962 16.0688C22.9962 18.3462 22.9873 18.6164 22.9464 19.5159C22.9084 20.348 22.7694 20.7995 22.6526 21.1C22.4979 21.4982 22.3127 21.7817 22.014 22.0802C21.7153 22.3789 21.4318 22.5638 21.0334 22.7185C20.7329 22.8358 20.281 22.9745 19.449 23.0125C18.5494 23.0534 18.2792 23.0623 16.0008 23.0623C13.7222 23.0623 13.4521 23.0534 12.5526 23.0125C11.7205 22.9741 11.269 22.8351 10.968 22.7183C10.5698 22.5636 10.2853 22.3787 9.98666 22.0801C9.68799 21.7814 9.5031 21.4977 9.34808 21.0992C9.23128 20.7988 9.09208 20.3472 9.05421 19.5152C9.01332 18.6157 9.00514 18.3454 9.00514 16.0667C9.00514 13.7879 9.01332 13.5191 9.05421 12.6195C9.09226 11.7875 9.23128 11.3359 9.34808 11.0351C9.50275 10.6369 9.68799 10.3525 9.98666 10.0538C10.2853 9.75513 10.5698 9.57024 10.968 9.41522C11.2688 9.29788 11.7205 9.15921 12.5526 9.12099C13.3398 9.08543 13.6448 9.07477 15.2353 9.07299V9.07512ZM20.5558 10.492C19.9905 10.492 19.5318 10.9502 19.5318 11.5157C19.5318 12.081 19.9905 12.5397 20.5558 12.5397C21.1212 12.5397 21.5799 12.081 21.5799 11.5157C21.5799 10.9503 21.1212 10.492 20.5558 10.492ZM16.0008 11.6885C13.5807 11.6885 11.6186 13.6506 11.6186 16.0708C11.6186 18.4909 13.5807 20.4521 16.0008 20.4521C18.4209 20.4521 20.3824 18.4909 20.3824 16.0708C20.3824 13.6506 18.4209 11.6885 16.0008 11.6885ZM16.0008 13.2263C17.5717 13.2263 18.8453 14.4997 18.8453 16.0708C18.8453 17.6416 17.5717 18.9152 16.0008 18.9152C14.4298 18.9152 13.1563 17.6416 13.1563 16.0708C13.1563 14.4997 14.4298 13.2263 16.0008 13.2263Z" fill="white"/>
</svg>
