<svg width="37" height="31" viewBox="0 0 37 31" fill="none" xmlns="http://www.w3.org/2000/svg">
<path d="M21.4164 10.0109C21.1044 10.0109 20.8507 9.75763 20.8507 9.44521V8.48389C20.8507 8.17186 21.104 7.91821 21.4164 7.91821C21.7284 7.91821 21.9821 8.17146 21.9821 8.48389V9.44521C21.9821 9.75763 21.7284 10.0109 21.4164 10.0109Z" fill="#103E13"/>
<path d="M19.0381 10.0109C18.7261 10.0109 18.4724 9.75763 18.4724 9.44521V8.48389C18.4724 8.17186 18.7257 7.91821 19.0381 7.91821C19.3501 7.91821 19.6038 8.17146 19.6038 8.48389V9.44521C19.6034 9.75763 19.3505 10.0109 19.0381 10.0109Z" fill="#103E13"/>
<path d="M16.66 10.0109C16.348 10.0109 16.0944 9.75763 16.0944 9.44521V8.48389C16.0944 8.17186 16.3476 7.91821 16.66 7.91821C16.9721 7.91821 17.2257 8.17146 17.2257 8.48389V9.44521C17.2257 9.75763 16.9725 10.0109 16.66 10.0109Z" fill="#103E13"/>
<path d="M21.4164 13.942C21.1044 13.942 20.8507 13.6888 20.8507 13.3763V12.4154C20.8507 12.1034 21.104 11.8497 21.4164 11.8497C21.7284 11.8497 21.9821 12.103 21.9821 12.4154V13.3763C21.9821 13.6888 21.7284 13.942 21.4164 13.942Z" fill="#103E13"/>
<path d="M19.0381 13.942C18.7261 13.942 18.4724 13.6888 18.4724 13.3763V12.4154C18.4724 12.1034 18.7257 11.8497 19.0381 11.8497C19.3501 11.8497 19.6038 12.103 19.6038 12.4154V13.3763C19.6034 13.6888 19.3505 13.942 19.0381 13.942Z" fill="#103E13"/>
<path d="M16.66 13.942C16.348 13.942 16.0944 13.6888 16.0944 13.3763V12.4154C16.0944 12.1034 16.3476 11.8497 16.66 11.8497C16.9721 11.8497 17.2257 12.103 17.2257 12.4154V13.3763C17.2257 13.6888 16.9725 13.942 16.66 13.942Z" fill="#103E13"/>
<path d="M21.4164 17.8733C21.1044 17.8733 20.8507 17.6201 20.8507 17.3076V16.3463C20.8507 16.0343 21.104 15.7806 21.4164 15.7806C21.7284 15.7806 21.9821 16.0339 21.9821 16.3463V17.3076C21.9821 17.6201 21.7284 17.8733 21.4164 17.8733Z" fill="#103E13"/>
<path d="M19.0381 17.8733C18.7261 17.8733 18.4724 17.6201 18.4724 17.3076V16.3463C18.4724 16.0343 18.7257 15.7806 19.0381 15.7806C19.3501 15.7806 19.6038 16.0339 19.6038 16.3463V17.3076C19.6034 17.6201 19.3505 17.8733 19.0381 17.8733Z" fill="#103E13"/>
<path d="M16.66 17.8733C16.348 17.8733 16.0944 17.6201 16.0944 17.3076V16.3463C16.0944 16.0343 16.3476 15.7806 16.66 15.7806C16.9721 15.7806 17.2257 16.0339 17.2257 16.3463V17.3076C17.2257 17.6201 16.9725 17.8733 16.66 17.8733Z" fill="#103E13"/>
<path d="M21.4164 21.8037C21.1044 21.8037 20.8507 21.5505 20.8507 21.2381V20.2767C20.8507 19.9647 21.104 19.7111 21.4164 19.7111C21.7284 19.7111 21.9821 19.9643 21.9821 20.2767V21.2381C21.9821 21.5505 21.7284 21.8037 21.4164 21.8037Z" fill="#103E13"/>
<path d="M19.0381 21.8037C18.7261 21.8037 18.4724 21.5505 18.4724 21.2381V20.2767C18.4724 19.9647 18.7257 19.7111 19.0381 19.7111C19.3501 19.7111 19.6038 19.9643 19.6038 20.2767V21.2381C19.6034 21.5505 19.3505 21.8037 19.0381 21.8037Z" fill="#103E13"/>
<path d="M16.66 21.8037C16.348 21.8037 16.0944 21.5505 16.0944 21.2381V20.2767C16.0944 19.9647 16.3476 19.7111 16.66 19.7111C16.9721 19.7111 17.2257 19.9643 17.2257 20.2767V21.2381C17.2257 21.5505 16.9725 21.8037 16.66 21.8037Z" fill="#103E13"/>
<path d="M21.4164 25.735C21.1044 25.735 20.8507 25.4817 20.8507 25.1693V24.2084C20.8507 23.8964 21.104 23.6427 21.4164 23.6427C21.7284 23.6427 21.9821 23.896 21.9821 24.2084V25.1693C21.9821 25.4813 21.7284 25.735 21.4164 25.735Z" fill="#103E13"/>
<path d="M19.0381 25.735C18.7261 25.735 18.4724 25.4817 18.4724 25.1693V24.2084C18.4724 23.8964 18.7257 23.6427 19.0381 23.6427C19.3501 23.6427 19.6038 23.896 19.6038 24.2084V25.1693C19.6034 25.4813 19.3505 25.735 19.0381 25.735Z" fill="#103E13"/>
<path d="M16.66 25.735C16.348 25.735 16.0944 25.4817 16.0944 25.1693L16.0948 24.2084C16.0948 23.8964 16.348 23.6427 16.6604 23.6427C16.9725 23.6427 17.2261 23.896 17.2261 24.2084V25.1693C17.2257 25.4813 16.9725 25.735 16.66 25.735Z" fill="#103E13"/>
<path d="M0.500475 29.6471C0.500475 29.9592 0.753724 30.2128 1.06615 30.2128H35.5139C35.8259 30.2128 36.0796 29.9596 36.0796 29.6471C36.0796 29.3351 35.8263 29.0815 35.5139 29.0815H34.4682V12.8402C34.4682 12.5281 34.215 12.2745 33.9025 12.2745L24.6668 12.2749V0.565762C24.6668 0.367742 24.5635 0.184709 24.3946 0.0821389C24.2262 -0.0208145 24.0156 -0.0271258 23.8404 0.0639933L13.3401 5.53098C13.1527 5.62841 13.0359 5.8217 13.0359 6.03275V16.2604H2.87388C2.56186 16.2604 2.3082 16.5137 2.3082 16.8261V29.0816H1.06489C0.752866 29.0812 0.5 29.3344 0.5 29.6468L0.500475 29.6471ZM24.667 20.8422H33.3374V29.0819L24.667 29.0815V20.8422ZM24.667 16.9113H33.3374V19.7113L24.667 19.7109V16.9113ZM24.667 13.4056H33.3374V15.7808H24.667V13.4056ZM14.1667 6.37622L23.5353 1.49818V29.081H14.1667V6.37622ZM6.23588 24.5635C6.23588 23.3895 7.16603 22.4341 8.30959 22.4341C9.45314 22.4341 10.3837 23.3891 10.3837 24.5635V29.0817H6.23588V24.5635ZM3.43952 17.3916H13.0358V29.0815H11.515V24.5633C11.515 22.7657 10.0776 21.303 8.30959 21.303C6.54236 21.303 5.10495 22.7653 5.10495 24.5633V29.0815H3.43952V17.3916Z" fill="#103E13"/>
</svg>
