<svg width="32" height="33" viewBox="0 0 32 33" fill="none" xmlns="http://www.w3.org/2000/svg">
<path opacity="0.1" fill-rule="evenodd" clip-rule="evenodd" d="M0 16.0707C0 7.23412 7.16344 0.0706787 16 0.0706787C24.8366 0.0706787 32 7.23412 32 16.0707C32 24.9072 24.8366 32.0707 16 32.0707C7.16344 32.0707 0 24.9072 0 16.0707Z" fill="white"/>
<path fill-rule="evenodd" clip-rule="evenodd" d="M15.5208 13.0757L15.5544 13.6293L14.9948 13.5615C12.9579 13.3016 11.1784 12.4203 9.66756 10.9402L8.92891 10.2058L8.73865 10.7481C8.33575 11.9571 8.59316 13.2338 9.43253 14.0925C9.8802 14.5671 9.77948 14.6349 9.00725 14.3524C8.73865 14.262 8.50363 14.1942 8.48124 14.2281C8.4029 14.3072 8.6715 15.3354 8.88414 15.7421C9.17513 16.3071 9.76828 16.8607 10.4174 17.1884L10.9658 17.4483L10.3167 17.4595C9.68994 17.4595 9.66756 17.4708 9.73471 17.7081C9.95854 18.4425 10.8427 19.2221 11.8276 19.5611L12.5214 19.7984L11.9171 20.1599C11.0218 20.6797 9.96973 20.9734 8.91772 20.996C8.41409 21.0073 8 21.0525 8 21.0864C8 21.1994 9.36538 21.8321 10.16 22.0807C12.5438 22.8151 15.3753 22.4988 17.5017 21.2446C19.0126 20.352 20.5235 18.5781 21.2286 16.8607C21.6091 15.9455 21.9896 14.2733 21.9896 13.4711C21.9896 12.9514 22.0232 12.8836 22.6499 12.2621C23.0192 11.9006 23.3662 11.5051 23.4333 11.3921C23.5452 11.1775 23.534 11.1775 22.9633 11.3696C22.012 11.7085 21.8777 11.6633 22.3477 11.1549C22.6947 10.7933 23.1088 10.138 23.1088 9.94592C23.1088 9.91202 22.9409 9.96851 22.7506 10.0702C22.5492 10.1832 22.1015 10.3527 21.7658 10.4544L21.1614 10.6464L20.613 10.2736C20.3108 10.0702 19.8856 9.84423 19.6617 9.77644C19.0909 9.61825 18.218 9.64085 17.7032 9.82163C16.3042 10.3301 15.4201 11.6407 15.5208 13.0757Z" fill="white"/>
</svg>
