<svg width="32" height="33" viewBox="0 0 32 33" fill="none" xmlns="http://www.w3.org/2000/svg">
<path opacity="0.1" fill-rule="evenodd" clip-rule="evenodd" d="M0 16.0707C0 7.23412 7.16344 0.0706787 16 0.0706787C24.8366 0.0706787 32 7.23412 32 16.0707C32 24.9072 24.8366 32.0707 16 32.0707C7.16344 32.0707 0 24.9072 0 16.0707Z" fill="white"/>
<path fill-rule="evenodd" clip-rule="evenodd" d="M22.6677 10.5703C23.4021 10.7718 23.9804 11.3656 24.1767 12.1196C24.5333 13.4861 24.5333 16.3374 24.5333 16.3374C24.5333 16.3374 24.5333 19.1886 24.1767 20.5553C23.9804 21.3093 23.4021 21.903 22.6677 22.1046C21.3369 22.4708 16 22.4708 16 22.4708C16 22.4708 10.6631 22.4708 9.33218 22.1046C8.59783 21.903 8.0195 21.3093 7.82323 20.5553C7.46667 19.1886 7.46667 16.3374 7.46667 16.3374C7.46667 16.3374 7.46667 13.4861 7.82323 12.1196C8.0195 11.3656 8.59783 10.7718 9.33218 10.5703C10.6631 10.2041 16 10.2041 16 10.2041C16 10.2041 21.3369 10.2041 22.6677 10.5703ZM14.4 13.9374V19.2707L18.6667 16.6041L14.4 13.9374Z" fill="white"/>
</svg>
