<svg width="18" height="17" viewBox="0 0 18 17" fill="none" xmlns="http://www.w3.org/2000/svg">
<path fill-rule="evenodd" clip-rule="evenodd" d="M17.0303 0.368617C17.2341 0.572345 17.3031 0.874769 17.2079 1.14671L11.9579 16.1467C11.8563 16.437 11.5878 16.6358 11.2806 16.6483C10.9733 16.6609 10.6895 16.4846 10.5646 16.2036L7.6818 9.71715L1.1954 6.83431C0.91439 6.70941 0.738092 6.42563 0.750627 6.11837C0.763163 5.81112 0.961991 5.54264 1.25224 5.44105L16.2522 0.191053C16.5242 0.0958738 16.8266 0.164888 17.0303 0.368617ZM9.14456 9.31505L11.1671 13.8656L14.7064 3.75321L9.14456 9.31505ZM13.6457 2.69255L3.53331 6.2319L8.0839 8.25439L13.6457 2.69255Z" fill="white"/>
</svg>
